<svg viewBox="0 0 510 510" fill="none" xmlns="http://www.w3.org/2000/svg">
<path d="M255 26.5C261.09 26.5 266.652 29.9571 269.347 35.418L331.29 160.908L469.814 181.155C475.839 182.036 480.842 186.261 482.72 192.053C484.598 197.845 483.026 204.201 478.664 208.449L378.441 306.064L402.095 443.971C403.124 449.974 400.656 456.041 395.728 459.62C390.801 463.2 384.268 463.671 378.878 460.836L255 395.689L131.122 460.836C125.731 463.671 119.199 463.2 114.271 459.62C109.344 456.041 106.876 449.974 107.905 443.971L131.557 306.064L31.3358 208.449C26.974 204.201 25.4021 197.845 27.2801 192.053C29.1581 186.261 34.1605 182.036 40.1854 181.155L178.709 160.908L240.652 35.418L240.914 34.9121C243.697 29.7446 249.1 26.5 255 26.5ZM203.684 182.607C201.356 187.325 196.857 190.596 191.651 191.356L76.8748 208.133L159.914 289.014C163.688 292.69 165.41 297.987 164.519 303.18L144.925 417.421L247.553 363.451C252.215 360.999 257.785 360.999 262.447 363.451L365.074 417.421L345.48 303.18C344.59 297.987 346.312 292.69 350.086 289.014L433.124 208.133L318.348 191.356C313.143 190.596 308.644 187.325 306.315 182.607L255 78.6484L203.684 182.607Z" fill="currentColor"/>
</svg>
