<svg viewBox="0 0 510 510" fill="none" xmlns="http://www.w3.org/2000/svg">
<path d="M279.995 241.387C320.862 241.387 355.384 271.583 360.912 311.979L361.038 312.935V312.935L375.569 429.192L375.667 430.016C379.541 464.885 352.24 495.5 317.036 495.5H192.963C157.482 495.5 130.03 464.4 134.431 429.192L148.963 312.935C154.072 272.061 188.816 241.387 230.005 241.387H279.995ZM230.005 268.613C202.546 268.614 179.383 289.062 175.977 316.312L161.446 432.569C159.076 451.528 173.859 468.274 192.963 468.274H317.036C336.141 468.274 350.924 451.527 348.554 432.569L334.023 316.313L333.94 315.675C330.255 288.744 307.239 268.613 279.995 268.613H230.005Z" fill="currentColor"/>
<path d="M309.45 96.1793C309.45 66.1058 285.072 41.7264 255 41.7264C224.928 41.7264 200.55 66.1058 200.55 96.1793C200.55 126.253 224.928 150.632 255 150.632C285.072 150.632 309.45 126.253 309.45 96.1793ZM336.674 96.1793C336.674 141.29 300.107 177.859 255 177.859C209.892 177.859 173.325 141.29 173.325 96.1793C173.325 51.0691 209.892 14.5 255 14.5C300.107 14.5 336.674 51.0691 336.674 96.1793Z" fill="currentColor"/>
<path d="M105.263 186.934C105.263 169.392 91.0429 155.17 73.5011 155.17C55.9592 155.17 41.7385 169.391 41.7385 186.934C41.7387 204.477 55.9593 218.698 73.5011 218.698C91.0428 218.698 105.263 204.477 105.263 186.934ZM132.488 186.934C132.488 219.514 106.079 245.924 73.5011 245.924C40.9234 245.924 14.5138 219.514 14.5137 186.934C14.5137 154.355 40.9234 127.943 73.5011 127.943C106.079 127.944 132.488 154.355 132.488 186.934Z" fill="currentColor"/>
<path d="M468.261 186.934C468.261 169.392 454.041 155.17 436.499 155.17C418.957 155.17 404.737 169.391 404.737 186.934C404.737 204.477 418.957 218.698 436.499 218.698C454.041 218.698 468.261 204.477 468.261 186.934ZM495.486 186.934C495.486 219.514 469.077 245.924 436.499 245.924C403.921 245.924 377.512 219.514 377.512 186.934C377.512 154.355 403.921 127.943 436.499 127.943C469.077 127.944 495.486 154.355 495.486 186.934Z" fill="currentColor"/>
<path d="M73.5013 286.764C81.0191 286.764 87.1138 292.859 87.1138 300.377C87.1138 307.896 81.0191 313.99 73.5013 313.991H66.5642C51.0377 313.991 37.787 325.216 35.2343 340.532V340.533L27.6717 385.91C24.4451 405.272 39.375 422.896 59.0022 422.896H141.563C149.081 422.896 155.176 428.991 155.176 436.51C155.176 444.028 149.081 450.123 141.563 450.123H59.0022C22.5518 450.123 -5.1749 417.392 0.817061 381.434V381.434L8.37967 336.057C13.1202 307.612 37.7293 286.764 66.5642 286.764H73.5013Z" fill="currentColor"/>
<path d="M443.435 286.764C472.269 286.764 496.879 307.611 501.619 336.056L509.183 381.434V381.435C515.173 417.39 487.453 450.123 451.001 450.123H368.437C360.919 450.123 354.824 444.028 354.824 436.51C354.824 428.991 360.919 422.896 368.437 422.896H451.001C470.626 422.896 485.554 405.274 482.328 385.909V385.909L474.765 340.533L474.764 340.532C472.213 325.216 458.962 313.991 443.435 313.991H436.499C428.981 313.991 422.886 307.896 422.886 300.377C422.886 292.859 428.981 286.764 436.499 286.764H443.435Z" fill="currentColor"/>
</svg>
