<svg viewBox="0 0 510 510" fill="none" xmlns="http://www.w3.org/2000/svg">
<path d="M439.819 351.992C477.49 351.156 508.855 378.976 509.993 414.311C509.998 414.462 510 414.613 510 414.763V447.209C510 447.36 509.998 447.511 509.993 447.661C508.855 483.008 477.472 510.835 439.789 509.981H343.303C305.622 510.809 274.256 482.967 273.145 447.618C273.141 447.471 273.138 447.324 273.138 447.177V414.763C273.138 414.613 273.141 414.462 273.145 414.311C274.283 378.976 305.648 351.156 343.319 351.992H439.819ZM166.713 192C185.164 191.858 202.922 198.591 216.077 210.717C229.234 222.843 236.71 239.371 236.861 256.664C236.861 256.705 236.862 256.747 236.862 256.787V445.19C236.862 445.23 236.861 445.271 236.861 445.312C236.71 462.608 229.234 479.137 216.077 491.263C202.953 503.36 185.249 510.088 166.845 509.976L70.0173 509.977C31.6684 510.212 0.342065 481.308 0.00104194 445.355C0.000620818 445.31 0 445.265 0 445.221V256.787C3.3409e-06 256.746 0.000680596 256.705 0.00104194 256.663C0.150894 239.641 7.3979 223.36 20.173 211.289L20.7856 210.717C33.9407 198.591 51.6972 191.858 70.1485 192H166.713ZM440.426 381.984C440.278 381.988 440.13 381.99 439.983 381.99H343.155C343.008 381.99 342.86 381.988 342.712 381.984C322.612 381.463 305.844 396.242 305.146 415.056V446.898C305.831 465.718 322.602 480.511 342.712 479.989L343.155 479.983H439.948L440.403 479.989C460.512 480.524 477.295 465.739 477.992 446.915V415.056C477.294 396.242 460.526 381.463 440.426 381.984ZM166.845 221.998H70.0173C69.9735 221.998 69.9297 221.997 69.886 221.997C60.2339 221.923 50.9331 225.332 43.9031 231.498L43.23 232.104C36.1387 238.64 32.1037 247.545 32.0084 256.864V445.133C32.2184 464.55 49.1637 480.143 69.8828 479.979H166.979C176.94 480.058 186.529 476.423 193.633 469.875C200.724 463.339 204.759 454.435 204.854 445.113V256.863C204.759 247.545 200.724 238.641 193.633 232.105C186.529 225.557 176.939 221.92 166.976 221.997C166.932 221.997 166.888 221.998 166.845 221.998ZM439.849 0.020071C458.3 -0.123718 476.059 6.60891 489.215 18.7355C502.372 30.8623 509.848 47.3908 509.999 64.6843C509.999 64.725 510 64.7666 510 64.8073V253.211C510 253.251 509.999 253.293 509.999 253.334C509.848 270.637 502.362 287.169 489.2 299.296L489.198 299.297C476.239 311.233 458.82 317.94 440.671 318L439.807 317.998H343.286L342.422 317.999C324.283 317.927 306.873 311.218 293.923 299.281C280.766 287.155 273.29 270.627 273.139 253.334C273.139 253.293 273.138 253.251 273.138 253.211V64.8073C273.138 64.7666 273.139 64.725 273.139 64.6843C273.29 47.3908 280.766 30.8623 293.923 18.7355C307.079 6.60892 324.838 -0.123718 343.289 0.020071H439.849ZM439.983 30.0179H343.155C343.111 30.0179 343.066 30.0172 343.022 30.0169C333.06 29.9393 323.471 33.5748 316.367 40.1226C309.276 46.6591 305.241 55.5637 305.146 64.8825V253.134C305.241 262.453 309.275 271.357 316.367 277.893C323.471 284.441 333.061 288.077 343.024 288.001C343.068 288.001 343.112 288 343.155 288H439.948C439.996 288 440.044 288.001 440.091 288.001C450.058 288.084 459.653 284.451 466.762 277.903C473.86 271.362 477.897 262.454 477.992 253.134V64.8825C477.897 55.5637 473.862 46.6591 466.771 40.1226C459.667 33.5748 450.078 29.9393 440.116 30.0169C440.072 30.0172 440.027 30.0179 439.983 30.0179ZM166.696 0.018118C204.361 -0.812316 235.717 27.0076 236.855 62.3368C236.859 62.4872 236.862 62.6384 236.862 62.7889V95.2348C236.862 95.3853 236.859 95.5364 236.855 95.6869C235.717 131.016 204.362 158.837 166.696 158.007H70.1663C32.4989 158.837 1.1442 131.016 0.00729357 95.6869C0.00245349 95.5364 4.62443e-06 95.3853 0 95.2348V62.7889C4.24538e-06 62.6385 0.00246049 62.4872 0.00729357 62.3368C1.14423 27.0076 32.4991 -0.812327 70.1663 0.018118H166.696ZM167.289 30.0101C167.141 30.0139 166.993 30.0159 166.845 30.0159H70.0173C69.8693 30.0159 69.7213 30.0139 69.5734 30.0101C49.4728 29.4877 32.7053 44.2678 32.0084 63.0819V94.9409C32.7047 113.756 49.4726 128.537 69.5734 128.015L70.0173 128.009H166.845L167.289 128.015C187.388 128.537 204.157 113.756 204.854 94.9409V63.0828C204.157 44.2683 187.388 29.4876 167.289 30.0101Z" fill="currentColor"/>
</svg>
