<svg viewBox="0 0 510 510" fill="none" xmlns="http://www.w3.org/2000/svg">
<path d="M280.194 240C321.388 240 356.186 270.539 361.758 311.394L361.885 312.361L376.532 429.939L376.63 430.772C380.535 466.037 353.016 497 317.532 497H192.467C156.703 497 129.032 465.547 133.468 429.939L148.116 312.361C153.265 271.022 188.287 240 229.805 240H280.194ZM229.805 267.536C202.127 267.536 178.779 288.217 175.345 315.776L160.698 433.354C158.31 452.528 173.21 469.464 192.467 469.464H317.532C336.789 469.464 351.69 452.528 349.301 433.354L334.654 315.777L334.57 315.132C330.856 287.895 307.656 267.536 280.194 267.536H229.805Z" fill="currentColor"/>
<path d="M310.333 94C310.333 63.8084 285.56 39.3333 255 39.3333C224.44 39.3333 199.667 63.8084 199.667 94C199.667 124.192 224.44 148.667 255 148.667C285.56 148.667 310.333 124.192 310.333 94ZM338 94C338 139.287 300.84 176 255 176C209.16 176 172 139.287 172 94C172 48.7127 209.16 12 255 12C300.84 12 338 48.7127 338 94Z" fill="currentColor"/>
</svg>
