<svg viewBox="0 0 510 510" fill="none" xmlns="http://www.w3.org/2000/svg">
<path d="M461.102 180.625C461.102 167.374 458.49 154.253 453.418 142.011C448.346 129.769 440.911 118.646 431.539 109.279L431.534 109.274C422.166 99.9016 411.044 92.4672 398.802 87.3948C386.56 82.3224 373.439 79.7112 360.188 79.7112C346.936 79.7112 333.815 82.3224 321.573 87.3948C309.332 92.4672 298.209 99.9017 288.842 109.274L266.313 131.801C260.065 138.049 249.935 138.049 243.687 131.801L221.161 109.277C202.238 90.3537 176.573 79.7229 149.812 79.7229C123.052 79.7229 97.3867 90.3538 78.4639 109.277C59.5411 128.199 48.9102 153.864 48.9102 180.625C48.9102 207.386 59.5411 233.051 78.4639 251.974L255 428.51L431.539 251.971C440.911 242.603 448.346 231.481 453.418 219.24C458.49 206.998 461.102 193.876 461.102 180.625ZM493.102 180.625C493.102 198.08 489.662 215.363 482.98 231.489C476.3 247.612 466.507 262.261 454.163 274.6L454.164 274.601L266.313 462.451C260.065 468.699 249.935 468.7 243.687 462.451L55.8359 274.601C30.9122 249.677 16.9102 215.873 16.9102 180.625C16.9102 145.377 30.912 111.573 55.8359 86.6487C80.76 61.7247 114.565 47.7229 149.812 47.7229C185.06 47.7229 218.865 61.7246 243.789 86.6487L255 97.8596L266.211 86.6487C278.55 74.3047 293.2 64.5124 309.324 57.8313C325.449 51.1499 342.733 47.7112 360.188 47.7112C377.642 47.7112 394.926 51.1499 411.051 57.8313C427.173 64.5117 441.822 74.3034 454.16 86.6458C466.505 98.9852 476.299 113.637 482.98 129.762C489.662 145.887 493.102 163.171 493.102 180.625Z" fill="currentColor"/>
</svg>
