<svg width="510" height="510" viewBox="0 0 510 510" fill="none" xmlns="http://www.w3.org/2000/svg">
<path d="M256 109V118L332 62L416 82L465 118L478 218L256 456V447L34 209L47 109L96 73L180 53L256 109Z" fill="white"/>
<path d="M461.191 177.914C461.191 164.663 458.58 151.542 453.508 139.3C448.435 127.058 441.001 115.935 431.629 106.567L431.624 106.562C422.256 97.1904 411.133 89.756 398.892 84.6836C386.65 79.6112 373.528 77 360.277 77C347.026 77 333.905 79.6112 321.663 84.6836C309.421 89.756 298.299 97.1905 288.932 106.562L266.403 129.09C260.155 135.338 250.025 135.338 243.776 129.09L221.251 106.565C202.328 87.6426 176.663 77.0117 149.902 77.0117C123.141 77.0117 97.4766 87.6426 78.5537 106.565C59.6309 125.488 49 151.153 49 177.914C49.0001 204.675 59.6309 230.34 78.5537 249.263L255.09 425.799L431.629 249.26C441.001 239.892 448.435 228.77 453.508 216.528C458.58 204.287 461.191 191.165 461.191 177.914ZM493.191 177.914C493.191 195.369 489.752 212.652 483.07 228.777C476.389 244.901 466.597 259.55 454.253 271.889L454.254 271.89L266.403 459.74C260.155 465.988 250.025 465.988 243.776 459.74L55.9258 271.89C31.0021 246.966 17.0001 213.162 17 177.914C17 142.666 31.0019 108.862 55.9258 83.9375C80.8498 59.0135 114.654 45.0117 149.902 45.0117C185.15 45.0117 218.955 59.0135 243.879 83.9375L255.09 95.1484L266.301 83.9375C278.64 71.5935 293.29 61.8012 309.414 55.1201C325.539 48.4387 342.823 45 360.277 45C377.732 45 395.016 48.4387 411.141 55.1201C427.263 61.8005 441.912 71.5922 454.25 83.9346C466.595 96.274 476.389 110.926 483.07 127.051C489.752 143.176 493.191 160.459 493.191 177.914Z" fill="white"/>
</svg>
