<svg viewBox="0 0 510 510" fill="none" xmlns="http://www.w3.org/2000/svg">
<path d="M457.293 370.953H371.45V456.797H421.175C441.126 456.797 457.293 440.63 457.293 420.678V370.953ZM158.943 456.797H351.05V264.71H158.943V456.797ZM371.45 350.553H457.293V264.71H371.45V350.553ZM52.6998 350.553H138.543V264.71H52.6998V350.553ZM371.45 244.31H457.293V158.447H371.45V244.31ZM158.943 244.31H351.05V52.2032H158.943V244.31ZM52.6998 244.31H138.543V158.447H52.6998V244.31ZM52.6998 420.678C52.6998 440.627 68.8699 456.793 88.8182 456.797H138.543V370.953H52.6998V420.678ZM457.293 88.3216C457.29 68.3733 441.124 52.2032 421.175 52.2032H371.45V138.047H457.293V88.3216ZM52.6998 138.047H138.543V52.2032H88.8182C68.8721 52.2068 52.7034 68.3756 52.6998 88.3216V138.047ZM477.693 420.678C477.693 451.896 452.393 477.197 421.175 477.197H88.8182C57.6033 477.193 32.2998 451.894 32.2998 420.678V88.3216C32.3034 57.1089 57.6055 31.8068 88.8182 31.8032H421.175C452.39 31.8032 477.69 57.1067 477.693 88.3216V420.678Z" fill="#BAC1CC"/>
</svg>
