<svg viewBox="0 0 510 510" fill="none" xmlns="http://www.w3.org/2000/svg">
<path d="M285.5 63.75C285.5 55.6609 282.286 47.9035 276.566 42.1836C270.847 36.4637 263.089 33.25 255 33.25C246.911 33.25 239.153 36.4637 233.434 42.1836C227.714 47.9035 224.5 55.6609 224.5 63.75V67.4102C224.463 76.5884 221.744 85.5557 216.676 93.208C211.608 100.86 204.414 106.864 195.978 110.479C194.696 111.029 193.33 111.348 191.942 111.429C183.999 114.413 175.378 115.199 166.996 113.68C157.744 112.002 149.205 107.591 142.483 101.016C142.452 100.985 142.421 100.954 142.39 100.923L141.114 99.6475L141.11 99.6426C138.278 96.8068 134.914 94.5573 131.211 93.0225C127.508 91.4876 123.539 90.6982 119.531 90.6982C115.523 90.6982 111.554 91.4876 107.852 93.0225C104.149 94.5573 100.785 96.8068 97.9521 99.6426L97.9434 99.6523C95.1076 102.485 92.8572 105.849 91.3223 109.552C89.7875 113.254 88.998 117.223 88.998 121.231C88.9981 125.24 89.7874 129.209 91.3223 132.911C92.7612 136.382 94.8287 139.555 97.418 142.272L97.9434 142.81L99.2227 144.09L99.3154 144.184C105.891 150.906 110.303 159.444 111.98 168.696C113.635 177.822 112.553 187.229 108.881 195.739C105.597 204.455 99.801 212.005 92.2207 217.427C84.5399 222.92 75.3839 225.975 65.9434 226.196C65.8498 226.198 65.7557 226.2 65.6621 226.2H63.75C55.6611 226.2 47.9034 229.413 42.1836 235.133C36.4637 240.853 33.25 248.611 33.25 256.7C33.2501 264.789 36.4638 272.547 42.1836 278.267C47.9034 283.986 55.661 287.2 63.75 287.2H67.4102C76.5884 287.237 85.5556 289.957 93.208 295.024C100.824 300.068 106.807 307.22 110.428 315.604C114.225 324.207 115.357 333.751 113.68 343.004C112.002 352.256 107.591 360.795 101.016 367.517C100.985 367.548 100.954 367.579 100.923 367.61L99.6475 368.886L99.6426 368.89C96.8068 371.722 94.5573 375.086 93.0225 378.789C91.4876 382.492 90.6982 386.461 90.6982 390.469C90.6982 394.477 91.4876 398.446 93.0225 402.148C94.4614 405.62 96.5289 408.793 99.1182 411.51L99.6426 412.048L99.6523 412.057C102.485 414.892 105.849 417.143 109.552 418.678C113.254 420.213 117.223 421.002 121.231 421.002C125.24 421.002 129.209 420.213 132.911 418.678C136.614 417.143 139.977 414.892 142.81 412.057L142.814 412.053L144.09 410.777L144.184 410.685C150.906 404.109 159.444 399.697 168.696 398.02C177.822 396.365 187.229 397.446 195.739 401.118C204.455 404.402 212.005 410.199 217.427 417.779C222.92 425.46 225.975 434.616 226.196 444.057C226.198 444.15 226.2 444.244 226.2 444.338V446.25C226.2 454.339 229.413 462.097 235.133 467.816C240.853 473.536 248.611 476.75 256.7 476.75C264.789 476.75 272.547 473.536 278.267 467.816C283.986 462.097 287.2 454.339 287.2 446.25V442.59C287.237 433.412 289.957 424.444 295.024 416.792C300.068 409.175 307.219 403.192 315.604 399.571C324.207 395.774 333.751 394.643 343.004 396.32C351.967 397.946 360.26 402.136 366.881 408.374L367.517 408.984L367.61 409.077L368.886 410.353L368.89 410.357C371.722 413.193 375.086 415.443 378.789 416.978C382.492 418.512 386.461 419.302 390.469 419.302C394.477 419.302 398.446 418.512 402.148 416.978C405.851 415.443 409.215 413.193 412.048 410.357L412.057 410.348C414.892 407.515 417.143 404.151 418.678 400.448C420.213 396.746 421.002 392.777 421.002 388.769C421.002 384.76 420.213 380.791 418.678 377.089C417.143 373.386 414.892 370.023 412.057 367.19L412.053 367.186L410.777 365.91C410.746 365.879 410.715 365.848 410.685 365.816C404.109 359.094 399.697 350.556 398.02 341.304C396.394 332.34 397.407 323.104 400.924 314.714L401.271 313.905C404.892 305.52 410.875 298.368 418.492 293.324C426.145 288.256 435.112 285.537 444.29 285.5H446.25C454.339 285.5 462.097 282.286 467.816 276.566C473.536 270.847 476.75 263.089 476.75 255C476.75 246.911 473.536 239.153 467.816 233.434C462.097 227.714 454.339 224.5 446.25 224.5H442.59C433.412 224.463 424.444 221.744 416.792 216.676C409.14 211.608 403.136 204.414 399.521 195.978C398.971 194.696 398.651 193.33 398.57 191.942C395.586 183.999 394.801 175.378 396.32 166.996C397.998 157.744 402.409 149.205 408.984 142.483L409.077 142.39L410.357 141.11C413.193 138.278 415.443 134.914 416.978 131.211C418.512 127.508 419.302 123.539 419.302 119.531C419.302 115.523 418.512 111.554 416.978 107.852C415.443 104.149 413.193 100.785 410.357 97.9521L410.348 97.9434C407.515 95.1076 404.151 92.8571 400.448 91.3223C396.746 89.7875 392.777 88.998 388.769 88.998C384.76 88.9981 380.791 89.7874 377.089 91.3223C373.386 92.8571 370.023 95.1076 367.19 97.9434L367.186 97.9473L365.91 99.2227C365.879 99.2537 365.848 99.2847 365.816 99.3154C359.094 105.891 350.556 110.303 341.304 111.98C332.093 113.651 322.595 112.534 314.022 108.778C314.008 108.772 313.994 108.766 313.979 108.76C313.955 108.749 313.93 108.739 313.905 108.729C305.52 105.108 298.368 99.1244 293.324 91.5078C288.256 83.8555 285.537 74.8881 285.5 65.71V63.75ZM306.75 255C306.75 226.419 283.581 203.25 255 203.25C226.419 203.25 203.25 226.419 203.25 255C203.25 283.581 226.419 306.75 255 306.75C283.581 306.75 306.75 283.581 306.75 255ZM330.75 255C330.75 296.836 296.836 330.75 255 330.75C213.164 330.75 179.25 296.836 179.25 255C179.25 213.164 213.164 179.25 255 179.25C296.836 179.25 330.75 213.164 330.75 255ZM309.5 65.6143L309.506 66.0361C309.603 70.3864 310.928 74.6241 313.334 78.2568C315.74 81.8896 319.124 84.7639 323.092 86.5508L323.478 86.7207L323.595 86.7715C327.81 88.6321 332.487 89.1873 337.021 88.3652C341.534 87.547 345.699 85.4011 348.986 82.2041L350.215 80.9775C355.275 75.9125 361.284 71.8942 367.898 69.1523C374.515 66.4097 381.606 64.9981 388.769 64.998C395.931 64.998 403.023 66.4097 409.639 69.1523C416.251 71.8933 422.258 75.91 427.317 80.9727C432.384 86.0342 436.405 92.045 439.147 98.6611C441.89 105.277 443.302 112.369 443.302 119.531C443.302 126.693 441.89 133.785 439.147 140.401C436.406 147.015 432.387 153.023 427.322 158.084L427.323 158.085L426.115 159.292C422.907 162.582 420.755 166.756 419.935 171.278C419.112 175.812 419.668 180.489 421.528 184.705C422.049 185.884 422.374 187.138 422.495 188.416C424.291 191.734 426.88 194.571 430.043 196.666C433.793 199.149 438.188 200.482 442.686 200.5H446.25C460.704 200.5 474.566 206.242 484.787 216.463C495.008 226.684 500.75 240.546 500.75 255C500.75 269.454 495.008 283.316 484.787 293.537C474.566 303.758 460.704 309.5 446.25 309.5H444.386L443.964 309.506C439.614 309.603 435.376 310.928 431.743 313.334C427.993 315.817 425.051 319.344 423.279 323.478C423.263 323.517 423.246 323.556 423.229 323.595C421.368 327.81 420.813 332.487 421.635 337.021C422.453 341.534 424.598 345.699 427.795 348.986L429.018 350.21C434.085 355.272 438.105 361.282 440.848 367.898C443.59 374.515 445.002 381.606 445.002 388.769C445.002 395.931 443.59 403.023 440.848 409.639C438.107 416.251 434.089 422.258 429.026 427.317L429.027 427.318C423.966 432.385 417.955 436.405 411.339 439.147C404.723 441.89 397.631 443.302 390.469 443.302C383.307 443.302 376.215 441.89 369.599 439.147C362.985 436.406 356.976 432.388 351.915 427.323L350.707 426.115C347.417 422.907 343.244 420.755 338.722 419.935C334.188 419.112 329.511 419.668 325.295 421.528C325.256 421.546 325.216 421.563 325.177 421.58C321.043 423.352 317.517 426.293 315.034 430.043C312.551 433.793 311.218 438.188 311.2 442.686V446.25C311.2 460.704 305.458 474.566 295.237 484.787C285.017 495.008 271.154 500.75 256.7 500.75C242.246 500.75 228.384 495.008 218.163 484.787C207.942 474.566 202.2 460.704 202.2 446.25V444.524C202.074 439.931 200.579 435.48 197.905 431.741C195.213 427.977 191.451 425.11 187.107 423.513C186.87 423.426 186.636 423.33 186.405 423.229C182.19 421.368 177.513 420.813 172.979 421.635C168.468 422.453 164.305 424.596 161.019 427.79L159.789 429.018C154.728 434.085 148.718 438.105 142.102 440.848C135.485 443.59 128.394 445.002 121.231 445.002C114.069 445.002 106.977 443.59 100.361 440.848C93.7453 438.105 87.7344 434.086 82.6729 429.019C77.6101 423.959 73.5935 417.951 70.8525 411.339C68.1099 404.723 66.6982 397.631 66.6982 390.469C66.6982 383.307 68.1099 376.215 70.8525 369.599C73.5095 363.189 77.3648 357.348 82.21 352.388L82.6816 351.91L83.8828 350.708C87.0916 347.418 89.2454 343.244 90.0654 338.722C90.8876 334.188 90.3323 329.511 88.4717 325.295C88.4544 325.256 88.4368 325.216 88.4199 325.177C86.6482 321.043 83.7067 317.517 79.957 315.034C76.3243 312.628 72.0866 311.302 67.7363 311.205L67.3145 311.2H63.75C49.2957 311.2 35.4336 305.458 25.2129 295.237C14.9922 285.017 9.25005 271.154 9.25 256.7C9.25 242.246 14.9922 228.384 25.2129 218.163C35.4336 207.942 49.2957 202.2 63.75 202.2H65.4746C70.0681 202.074 74.52 200.579 78.2588 197.905C82.0228 195.213 84.8899 191.451 86.4873 187.107C86.5745 186.87 86.6695 186.636 86.7715 186.405C88.6321 182.19 89.1873 177.513 88.3652 172.979C87.547 168.466 85.4014 164.3 82.2041 161.013L80.9775 159.785C75.9128 154.725 71.8941 148.715 69.1523 142.102C66.4097 135.485 64.9981 128.394 64.998 121.231C64.998 114.069 66.4097 106.977 69.1523 100.361C71.8934 93.7491 75.9098 87.7413 80.9727 82.6816L81.4502 82.21C86.4107 77.3648 92.2518 73.5095 98.6611 70.8525C105.277 68.1099 112.369 66.6982 119.531 66.6982C126.693 66.6982 133.785 68.1099 140.401 70.8525C147.015 73.5943 153.024 77.612 158.085 82.6768L159.292 83.8838C162.582 87.0923 166.756 89.2454 171.278 90.0654C175.812 90.8876 180.489 90.3323 184.705 88.4717L184.992 88.3496C186.087 87.9001 187.241 87.6155 188.416 87.5039C191.734 85.708 194.571 83.1203 196.666 79.957C199.149 76.2071 200.482 71.8121 200.5 67.3145V63.75C200.5 49.2957 206.242 35.4336 216.463 25.2129C226.684 14.9922 240.546 9.25 255 9.25C269.454 9.25 283.316 14.9922 293.537 25.2129C303.758 35.4336 309.5 49.2957 309.5 63.75V65.6143Z" fill="currentColor"/>
</svg>
